# xmcd CD database file
#
# Track frame offsets:
#	150
#	22198
#	44773
#	74237
#	97529
#	120589
#
# Disc length: 1958 seconds
#
# Revision: 0
# Processed by: cddbd v1.5.2PL0 Copyright (c) Steve Scherf et al.
# Submitted via: CDex 1.70beta2
#
DISCID=5207a406
DTITLE=STRAUSS - STRAUSS E.P
DYEAR=2013
DGENRE=Stoner
TTITLE0=BURNING SKY
TTITLE1=MI CASA ES TU CASA
TTITLE2=TRIGGER
TTITLE3=MARCH OF ONE
TTITLE4=TRAPPED OUTSIDE
TTITLE5=STOP, PAUSE and PLAY
EXTD=YEAR: 2013
EXTT0=
EXTT1=
EXTT2=
EXTT3=
EXTT4=
EXTT5=
PLAYORDER=
